<svg t="1541563176665" class="icon" style="" viewBox="0 0 1050 1024" version="1.1" xmlns="http://www.w3.org/2000/svg" p-id="1854" xmlns:xlink="http://www.w3.org/1999/xlink" width="1em" height="1em"><defs><style type="text/css"></style></defs><path d="M985.392931 37.358138l-326.410208 0c-17.992843 0-32.623179 14.630336-32.623179 32.678077 0 17.992843 14.602887 32.540832 32.623179 32.540832l244.200346 0-430.881237 430.881237c-13.299058 13.408854-13.299058 35.162215 0 48.488722 13.395129 13.408854 35.162215 13.408854 48.571069 0l431.896852-431.869403 0 213.731916c0 18.020292 14.561713 32.636903 32.623179 32.636903s32.678077-14.589162 32.678077-32.636903L1018.071008 70.036214C1018.071008 51.988474 1003.468121 37.358138 985.392931 37.358138L985.392931 37.358138M962.129874 625.151787c-17.992843 0-32.650628 14.602887-32.650628 32.678077l0 25.143317 0 108.245272c0 36.068033-29.246948 65.164011-65.301256 65.164011l-718.684376 0c-36.054308 0-65.31498-29.137151-65.31498-65.164011l0-548.980713c0-36.054308 29.260672-65.246358 65.31498-65.246358l238.024313 0 25.06097 0c18.020292 0 32.678077-14.630336 32.678077-32.678077s-14.602887-32.650628-32.678077-32.650628l-295.73591 0c-54.0746 0-97.951884 43.877284-97.951884 97.951884l0 614.144724c0 54.0746 43.863559 97.951884 97.951884 97.951884l784.013081 0c54.060876 0 97.951884-43.863559 97.951884-97.951884L994.807951 657.829864C994.807951 639.754674 980.191339 625.151787 962.129874 625.151787L962.129874 625.151787" p-id="1855"></path></svg>